<svg id="Layer_1" data-name="Layer 1" xmlns="http://www.w3.org/2000/svg" xmlns:xlink="http://www.w3.org/1999/xlink" viewBox="0 0 170.15 42.88"><defs><style>.cls-1{fill-rule:evenodd;fill:url(#linear-gradient);}.cls-2{font-size:28.91px;fill:#fff;font-family:Poppins-Black, Poppins;font-weight:800;}</style><linearGradient id="linear-gradient" x1="15" y1="35" x2="15" y2="5" gradientTransform="matrix(1, 0, 0, -1, 0, 38)" gradientUnits="userSpaceOnUse"><stop offset="0" stop-color="#877eff"/><stop offset="0.46" stop-color="#685dff"/><stop offset="1" stop-color="#3121ff"/></linearGradient></defs><path class="cls-1" d="M27.83,18A12.83,12.83,0,1,1,15,5.17,12.82,12.82,0,0,1,27.83,18ZM30,18A15,15,0,1,1,15,3,15,15,0,0,1,30,18Zm-6.72-6.72a1.56,1.56,0,1,1-1.56-1.56A1.56,1.56,0,0,1,23.28,11.28ZM10.49,19.21a4.67,4.67,0,1,0,3.3-5.72A4.67,4.67,0,0,0,10.49,19.21Zm-2.09.56a6.83,6.83,0,1,0,4.83-8.37A6.82,6.82,0,0,0,8.4,19.77Z" transform="translate(0 -3)"/><text class="cls-2" transform="translate(30.43 24.76) scale(0.97 1)">drvcLand</text></svg>